<?xml version="1.0" encoding="UTF-8"?>
<svg version="1.1" xmlns="http://www.w3.org/2000/svg" width="512" height="512">
<path d="M0 0 C11.75213459 8.80926069 19.39495106 21.67013368 21.69140625 36.16015625 C22.42888362 42.94681511 22.15814321 49.28739039 21 56 C22.10310013 56.00364563 23.20620026 56.00729126 24.34272766 56.01104736 C34.77322181 56.04809849 45.20342348 56.10598131 55.63369465 56.18390274 C60.9951475 56.22329671 66.35643809 56.25552478 71.71801758 56.27099609 C76.89888356 56.28621593 82.0793032 56.32075575 87.25996971 56.36830902 C89.22971896 56.38306802 91.19953196 56.39103784 93.16933632 56.39188385 C106.17860591 56.40308347 117.2134822 56.78170073 128 65 C128.80308594 65.59167969 129.60617187 66.18335937 130.43359375 66.79296875 C133.13143635 69.11303126 134.79707479 71.30906039 136.6875 74.3125 C137.55955078 75.66794922 137.55955078 75.66794922 138.44921875 77.05078125 C141.29979516 82.47190264 142.24958746 87.61652732 142.26006222 93.6999464 C142.2706606 95.67438694 142.2706606 95.67438694 142.2814731 97.68871516 C142.27922205 99.1376258 142.27677559 100.58653615 142.27415466 102.03544617 C142.27860955 103.58386281 142.28392442 105.13227717 142.29002339 106.6806882 C142.30418371 110.92871478 142.30586705 115.17666812 142.30542648 119.42471492 C142.30707642 124.009065 142.32014623 128.59338505 142.33161926 133.17771912 C142.35445441 143.19845149 142.36238823 153.21916266 142.36744571 163.23991752 C142.37070435 169.49905255 142.37722783 175.75818144 142.3844471 182.017313 C142.40401082 199.35357687 142.42041645 216.68983503 142.42332363 234.02611065 C142.42360499 235.68969651 142.42360499 235.68969651 142.42389202 237.38689016 C142.42425827 239.63513013 142.42462197 241.88337009 142.42498314 244.13161006 C142.42516595 245.24760989 142.42534876 246.36360972 142.42553711 247.51342773 C142.42580793 249.18947511 142.42580793 249.18947511 142.42608423 250.89938203 C142.42962568 269.00362423 142.45664731 287.10774747 142.494035 305.21194842 C142.53212996 323.80771841 142.55148119 342.40342939 142.55178314 360.99923927 C142.55236743 371.43672873 142.56084115 381.87407626 142.58978081 392.31152916 C142.6143105 401.19921489 142.62156679 410.08670691 142.60653328 418.97441735 C142.59937101 423.50661575 142.60019234 428.03843178 142.62294388 432.57058716 C142.64360062 436.72536241 142.64087162 440.87946293 142.62006903 445.0342314 C142.61658689 446.53153907 142.62142979 448.02889609 142.63577347 449.5261391 C142.7537468 462.69692872 139.88634556 473.1225074 130.61328125 482.80078125 C124.34949741 488.07209709 116.36845462 492.11511124 108.10410404 492.13701439 C106.58051764 492.1446262 106.58051764 492.1446262 105.02615172 492.15239179 C103.90691878 492.15288955 102.78768583 492.15338731 101.63453674 492.15390015 C100.44804297 492.1582824 99.2615492 492.16266465 98.03910106 492.1671797 C94.73977504 492.17824955 91.44049646 492.1847938 88.1411587 492.18936086 C84.58470171 492.19531699 81.02826221 492.20692705 77.47181702 492.21765137 C68.87820598 492.24217886 60.28458915 492.25680496 51.69095388 492.26971143 C49.26291175 492.27342373 46.8348702 492.27739695 44.40682864 492.2814641 C29.32426984 492.30670583 14.24171013 492.32875585 -0.84086514 492.34119225 C-4.33490947 492.34412189 -7.82895378 492.34708355 -11.32299805 492.35009766 C-12.19141333 492.35084371 -13.05982861 492.35158976 -13.95455951 492.35235842 C-28.01101904 492.36500221 -42.0673518 492.39821145 -56.12375211 492.43989949 C-70.5609443 492.48236506 -84.99807169 492.50589279 -99.43532616 492.51111281 C-107.53887915 492.51452217 -115.64223421 492.52622072 -123.74572563 492.55921555 C-130.64991309 492.58728115 -137.55386204 492.59818709 -144.4581021 492.58702008 C-147.97768836 492.58184952 -151.49677568 492.58461418 -155.01628876 492.60948563 C-158.84183334 492.63221265 -162.66613198 492.62386333 -166.49168396 492.60800171 C-167.59084041 492.6218838 -168.68999685 492.63576588 -169.82246107 492.65006864 C-181.21709971 492.53414856 -190.59481134 488.47568398 -198.80078125 480.61328125 C-204.95401111 473.30153919 -208.15197996 465.08003304 -208.14044189 455.62937927 C-208.14341302 454.87276994 -208.14638414 454.11616061 -208.1494453 453.33662373 C-208.15813722 450.79398478 -208.15964093 448.25139288 -208.16113281 445.70874023 C-208.16576048 443.88890482 -208.17078506 442.06907037 -208.17617798 440.24923706 C-208.18930516 435.30109149 -208.19574705 430.35295949 -208.20018864 425.40479922 C-208.20311761 422.31638896 -208.20722198 419.22798244 -208.21169281 416.13957405 C-208.22536584 406.48495006 -208.23503461 396.83033456 -208.2388947 387.17570156 C-208.24338131 376.01444827 -208.26095791 364.85331709 -208.2898953 353.69210094 C-208.31146795 345.07381894 -208.32159654 336.45557142 -208.32293582 327.83726269 C-208.32398662 322.68513077 -208.32995304 317.53311366 -208.34775543 312.38101006 C-208.36416091 307.53914603 -208.36642852 302.69748407 -208.35761642 297.85560226 C-208.35684211 296.0745585 -208.36124024 294.29350419 -208.37107468 292.51248741 C-208.38367504 290.0892922 -208.3779834 287.66682581 -208.36749268 285.24363708 C-208.37554908 284.53168369 -208.38360548 283.8197303 -208.39190602 283.08620256 C-208.3719368 281.12692928 -208.3719368 281.12692928 -208 278 C-205 276 -205 276 -202 276 C-202 274.02 -202 272.04 -202 270 C-202.804375 269.690625 -203.60875 269.38125 -204.4375 269.0625 C-207 268 -207 268 -208 267 C-208.15351581 264.36070903 -208.23163061 261.76560041 -208.25 259.125 C-208.270625 258.39152344 -208.29125 257.65804688 -208.3125 256.90234375 C-208.35163122 251.53158367 -208.35163122 251.53158367 -206.671875 248.9921875 C-205 248 -205 248 -202 248 C-202 246.02 -202 244.04 -202 242 C-202.804375 241.690625 -203.60875 241.38125 -204.4375 241.0625 C-207 240 -207 240 -208 239 C-208.10540335 237.06333169 -208.1396748 235.12277805 -208.14717102 233.18325806 C-208.15432632 231.91882874 -208.16148163 230.65439941 -208.16885376 229.35165405 C-208.17169443 227.937073 -208.17440612 226.52249168 -208.17700195 225.10791016 C-208.18326406 223.62809081 -208.18991063 222.14827305 -208.19691467 220.66845703 C-208.21435878 216.63485394 -208.22488771 212.60126275 -208.2331202 208.56763124 C-208.23826774 206.04567922 -208.24434388 203.52373089 -208.25063133 201.00178146 C-208.26970093 193.10645399 -208.28392302 185.21113591 -208.2922433 177.31578982 C-208.30199499 168.21247808 -208.32825267 159.10941084 -208.36874419 150.00618517 C-208.39897683 142.96655885 -208.4137193 135.92700225 -208.41702431 128.88731229 C-208.41936852 124.68551324 -208.42824495 120.48397482 -208.45348549 116.28224564 C-208.47689373 112.32100782 -208.48094875 108.36019978 -208.47072411 104.39891052 C-208.47023156 102.95221394 -208.47646825 101.50549532 -208.49028015 100.05886459 C-208.59817256 88.07847073 -206.8382092 78.35182517 -198.97265625 69 C-188.56920263 58.45234009 -176.19434248 56.49696123 -162.03181458 56.39434814 C-160.10063712 56.3926856 -158.16945925 56.39145442 -156.23828125 56.390625 C-154.23616715 56.3756235 -152.23406533 56.35889226 -150.23197937 56.34051514 C-144.99601636 56.29705059 -139.76022024 56.27688905 -134.52410889 56.26177979 C-129.16766578 56.24213301 -123.81140094 56.20017173 -118.45507812 56.16015625 C-107.97010735 56.08508072 -97.48517691 56.03465241 -87 56 C-87.16081055 55.0615625 -87.32162109 54.123125 -87.48730469 53.15625 C-89.88340258 38.40541496 -86.16980625 24.36597133 -78 12 C-59.77158516 -12.55677018 -24.81268597 -17.85353531 0 0 Z M-61.25 13.1875 C-70.25547126 21.75471441 -74.84081919 32.09828113 -75.375 44.5625 C-75.22760627 49.0661973 -73.94284636 53.17971357 -72.6796875 57.48046875 C-71.87605712 60.45944342 -71.54062168 62.93747784 -72 66 C-73.64239095 68.19995419 -74.53126304 68.92036979 -77.26489258 69.38476562 C-78.56656372 69.39540039 -78.56656372 69.39540039 -79.89453125 69.40625 C-80.85037109 69.42816406 -81.80621094 69.45007813 -82.79101562 69.47265625 C-83.78810547 69.48167969 -84.78519531 69.49070312 -85.8125 69.5 C-96.18566111 69.48277957 -96.18566111 69.48277957 -104.86328125 74.75390625 C-105.34152344 75.35074219 -105.81976563 75.94757813 -106.3125 76.5625 C-106.80363281 77.16191406 -107.29476562 77.76132813 -107.80078125 78.37890625 C-111.05175922 82.77355074 -110.60958484 87.74764692 -110 93 C-107.98180963 98.70563167 -104.94895714 101.48247316 -99.48510742 104.13671875 C-94.60589421 105.83166893 -89.58137582 105.55340179 -84.46875 105.51757812 C-83.2319751 105.5245874 -81.9952002 105.53159668 -80.72094727 105.53881836 C-77.34874198 105.55334922 -73.97752584 105.55002575 -70.6053772 105.53730202 C-67.0643793 105.52712323 -63.52342156 105.53658116 -59.98242188 105.54284668 C-54.0376839 105.55010899 -48.09314517 105.54057284 -42.1484375 105.52148438 C-35.29092184 105.49971815 -28.43388201 105.50677054 -21.57637787 105.52879 C-15.67206521 105.54698464 -9.76789519 105.54948257 -3.86356354 105.53903532 C-0.3444286 105.53282259 3.17448321 105.53190299 6.69360352 105.54518127 C10.61883818 105.55895931 14.54354661 105.53982376 18.46875 105.51757812 C20.20209595 105.52972351 20.20209595 105.52972351 21.97045898 105.54211426 C29.46453085 105.46358944 35.18970729 104.56421131 40.875 99.24609375 C44.36031899 93.6429594 45.06955608 88.517295 44 82 C41.64465564 77.10813094 38.2826542 74.18921058 34 71 C31.07202563 70.02400854 29.05523088 69.84956762 26 69.7890625 C25.030625 69.76070313 24.06125 69.73234375 23.0625 69.703125 C21.02101757 69.65104637 18.97932107 69.60677359 16.9375 69.5703125 C15.968125 69.539375 14.99875 69.5084375 14 69.4765625 C13.113125 69.45674316 12.22625 69.43692383 11.3125 69.41650391 C8.56170655 68.92105906 7.65326682 68.22057732 6 66 C5.38693899 61.91292662 6.35731083 58.57808456 7.5 54.6875 C10.39507487 44.45823546 9.28546165 34.67776758 4.55859375 25.0703125 C-1.23120394 15.37139387 -9.21382281 7.75630506 -20 4 C-35.63521862 0.16009319 -48.94769725 2.79480842 -61.25 13.1875 Z M-159.4296875 108.73046875 C-164.7931959 116.48220602 -165.5798307 123.50661099 -165.5146637 132.78379822 C-165.52160922 134.05033361 -165.52855475 135.31686901 -165.53571075 136.62178427 C-165.55426223 140.11676808 -165.54805937 143.61132599 -165.53755772 147.10632694 C-165.53054425 150.88352847 -165.54657987 154.66064438 -165.55955505 158.43782043 C-165.58116447 165.82947678 -165.58107604 173.22097899 -165.57292951 180.61265653 C-165.56662216 186.62209682 -165.56777327 192.63149226 -165.57420158 198.64093208 C-165.57510324 199.49718743 -165.57600489 200.35344278 -165.57693387 201.23564525 C-165.57878513 202.97528415 -165.58064769 204.71492303 -165.58252143 206.4545619 C-165.59908925 222.75704573 -165.59038937 239.05944294 -165.57353585 255.36192156 C-165.55883993 270.2664796 -165.57346756 285.17083602 -165.60230602 300.0753681 C-165.63172022 315.39191138 -165.64266639 330.70836168 -165.63312382 346.02493197 C-165.6321013 347.75837201 -165.63110669 349.49181207 -165.6301403 351.22525215 C-165.62966391 352.07806432 -165.62918752 352.9308765 -165.6286967 353.80953146 C-165.62653523 359.80874051 -165.63632238 365.80786124 -165.65091133 371.8070507 C-165.66845363 379.12253623 -165.6682902 386.43776477 -165.64555968 393.75324028 C-165.63443454 397.48321486 -165.63121511 401.21273703 -165.64986038 404.9426918 C-165.66984057 408.99190442 -165.65084242 413.0400197 -165.62818909 417.08921814 C-165.64002482 418.26014462 -165.65186054 419.4310711 -165.66405493 420.6374802 C-165.5707746 428.85421074 -163.93016522 435.71809697 -158.24464136 441.91245788 C-151.79146886 447.98871654 -145.2277819 449.44806779 -136.64567566 449.39440918 C-135.26296344 449.40354584 -135.26296344 449.40354584 -133.85231763 449.41286707 C-130.77405859 449.42947039 -127.69621441 449.42472499 -124.61791992 449.41992188 C-122.40653556 449.42726378 -120.19515502 449.43585037 -117.98377991 449.44558716 C-111.98368038 449.46780006 -105.98371821 449.4707339 -99.98358321 449.46883965 C-94.97125509 449.46871992 -89.95895605 449.47728488 -84.94663602 449.48561716 C-72.44288678 449.5059502 -59.9392044 449.50700169 -47.43544934 449.49981004 C-36.5917214 449.49423704 -25.74822989 449.51505242 -14.90455719 449.54817051 C-3.75557569 449.58195525 7.39331954 449.59659587 18.54235953 449.59245348 C24.79579164 449.59038728 31.0489883 449.59584566 37.3023777 449.62034607 C43.18516501 449.64263308 49.06746093 449.64071853 54.95025063 449.62041855 C57.10527428 449.61701191 59.26033114 449.62208255 61.41530991 449.63640213 C77.90325893 450.07485939 77.90325893 450.07485939 91.87785053 442.24459076 C98.99880956 434.84995518 99.43774826 427.27747897 99.38768005 417.44998169 C99.39306559 416.18444958 99.39845113 414.91891746 99.40399987 413.61503589 C99.41843284 410.11366467 99.41421657 406.61252927 99.40683305 403.11114526 C99.4020983 399.33053402 99.41461398 395.54997357 99.42485046 391.76937866 C99.44203811 384.36710981 99.44287851 376.96492585 99.43763756 369.56264223 C99.43359437 363.54504736 99.43504119 357.52747756 99.44038582 351.50988388 C99.44113424 350.65306883 99.44188266 349.79625378 99.44265376 348.91347464 C99.44418526 347.17278695 99.44572361 345.43209927 99.44726873 343.6914116 C99.46099379 327.37085923 99.45555617 311.05035482 99.44408352 294.72980355 C99.43415232 279.80507137 99.44708983 264.88046318 99.47101771 249.95575012 C99.49541169 234.62459391 99.50501577 219.29349544 99.49836498 203.96232021 C99.49487327 195.35762672 99.49710159 186.75302857 99.51461601 178.14834976 C99.52934177 170.82293954 99.52996865 163.49769179 99.5125451 156.17228474 C99.50403552 152.43642778 99.50188422 148.70086102 99.51719666 144.96501923 C99.53360676 140.91110638 99.5188903 136.85789298 99.50120544 132.8039856 C99.51081045 131.62878204 99.52041546 130.45357847 99.53031152 129.24276268 C99.45579479 120.94051134 97.9942769 113.26065169 91.875 107.1875 C84.4551077 100.60260394 75.89038295 99.27520362 66.25 99.25 C65.24839844 99.20101562 64.24679687 99.15203125 63.21484375 99.1015625 C57.67869657 98.9982961 57.67869657 98.9982961 53.08154297 101.7175293 C51.48921584 103.79116903 51.48921584 103.79116903 50.24658203 105.95288086 C46.58046152 111.9733314 40.70176628 115.26931175 34 117 C29.64316935 117.43337392 25.30947074 117.4203304 20.93383789 117.40405273 C19.64014786 117.41091599 18.34645782 117.41777924 17.01356506 117.42485046 C13.48454874 117.44270917 9.95578205 117.44162739 6.42673421 117.43590808 C3.47210784 117.43280566 0.51752869 117.43892033 -2.43709093 117.44494683 C-9.41147016 117.45896646 -16.38572683 117.45745215 -23.36010742 117.44604492 C-30.53681867 117.4345656 -37.71315613 117.44864183 -44.88981813 117.4754414 C-51.0692888 117.49764664 -57.24864254 117.50422497 -63.42815024 117.49836498 C-67.1110906 117.49500576 -70.79379141 117.49734108 -74.47669792 117.51461601 C-78.58618469 117.53305277 -82.69495094 117.51884871 -86.80444336 117.50170898 C-88.01251648 117.51137695 -89.2205896 117.52104492 -90.465271 117.53100586 C-99.35961842 117.45348422 -106.59822898 115.7497954 -113.3125 109.625 C-113.92738281 109.08101562 -114.54226562 108.53703125 -115.17578125 107.9765625 C-117 106 -117 106 -118.53515625 102.8125 C-120.65419268 99.84557892 -120.65419268 99.84557892 -123.31079102 99.45458984 C-126.27038555 99.26030345 -129.16070985 99.28119335 -132.125 99.375 C-133.12015625 99.36855469 -134.1153125 99.36210938 -135.140625 99.35546875 C-144.72661065 99.49312651 -152.55043668 101.90307158 -159.4296875 108.73046875 Z " fill="#1D71A0" transform="translate(289,15)"/>
<path d="M0 0 C1.68117668 0.0001133 1.68117668 0.0001133 3.39631653 0.00022888 C4.59544174 0.00539017 5.79456696 0.01055145 7.0300293 0.01586914 C8.26593307 0.01728409 9.50183685 0.01869904 10.77519226 0.02015686 C14.0483315 0.02479921 17.32142092 0.03377228 20.59454346 0.04486084 C23.93957053 0.05512135 27.28459978 0.05957908 30.62963867 0.06469727 C37.18369455 0.07571632 43.73771722 0.09244703 50.29174805 0.11352539 C49.88037598 0.87536133 49.88037598 0.87536133 49.46069336 1.65258789 C47.29307248 5.79765342 45.74271738 9.4403965 45.04174805 14.11352539 C44.8922168 15.06227539 44.74268555 16.01102539 44.58862305 16.98852539 C44.4906543 17.68977539 44.39268555 18.39102539 44.29174805 19.11352539 C43.57744629 19.10716064 42.86314453 19.1007959 42.12719727 19.09423828 C25.92435741 19.05116645 13.03946263 19.19113281 0.29174805 30.30102539 C-5.87978526 37.19309304 -9.82230479 46.2031517 -9.84526634 55.42640591 C-9.85034088 56.50968904 -9.85541543 57.59297217 -9.86064374 58.70908207 C-9.8611415 59.89864806 -9.86163926 61.08821406 -9.8621521 62.31382751 C-9.86653435 63.57805764 -9.87091661 64.84228777 -9.87543166 66.1448279 C-9.88738563 69.65658108 -9.8930429 73.16832054 -9.89761281 76.68009007 C-9.90357352 80.46695233 -9.91518235 84.25379821 -9.92590332 88.04064941 C-9.95041893 97.18854398 -9.96505446 106.33644396 -9.97796339 115.48436126 C-9.98167632 118.06922771 -9.98564948 120.65409363 -9.98971605 123.23895955 C-10.01495663 139.29816322 -10.03700503 155.35736775 -10.0494442 171.41658688 C-10.0523738 175.13596029 -10.05533547 178.85533368 -10.05834961 182.57470703 C-10.05909566 183.49911618 -10.05984171 184.42352534 -10.06061037 185.37594689 C-10.07325539 200.34021047 -10.10646721 215.304355 -10.14815144 230.26856297 C-10.19061895 245.64031184 -10.2141449 261.01199987 -10.21936476 276.38380724 C-10.22277372 285.01107399 -10.23446771 293.6381548 -10.2674675 302.26536369 C-10.29553562 309.61525579 -10.30643787 316.96492382 -10.29527204 324.31486534 C-10.29010232 328.06140076 -10.29286093 331.80746746 -10.31773758 335.5539341 C-10.34455162 339.62640086 -10.33211241 343.69784635 -10.31625366 347.77037048 C-10.33013575 348.93985999 -10.34401784 350.10934949 -10.35832059 351.31427807 C-10.25098902 362.55057991 -6.85178576 374.00709196 1.29174805 382.11352539 C13.91833656 392.71392945 27.4136437 392.69976145 43.08032227 392.64697266 C45.28743057 392.65403803 47.49453403 392.66278564 49.70162964 392.67308044 C55.67281499 392.69551547 61.64373453 392.69264823 67.61494589 392.68375897 C72.60980041 392.67863583 77.60460557 392.68595249 82.599455 392.69323105 C95.06102011 392.71118104 107.52246768 392.7048386 119.98402239 392.68706124 C130.78021121 392.67237125 141.57612154 392.68698862 152.3722745 392.71583141 C163.48638137 392.74530005 174.60037688 392.75566896 185.71452343 392.74664921 C191.94282905 392.74173199 198.17091836 392.74387045 204.39919662 392.76443672 C210.25826166 392.78285894 216.11681141 392.77675483 221.97584915 392.75223732 C224.1183217 392.74725013 226.26083395 392.75066438 228.40327454 392.76338577 C243.07399721 392.84356418 255.60955344 392.06305147 267.3581543 382.12524414 C276.60691187 372.50279939 278.74513349 361.1592256 278.6794281 348.29849243 C278.68481364 347.02857905 278.69019918 345.75866566 278.69574791 344.45027006 C278.71014446 340.94587697 278.7059761 337.44172022 278.6985811 333.93731451 C278.69383728 330.14988367 278.70637 326.36250307 278.71659851 322.5750885 C278.73376832 315.16306463 278.73463028 307.75112561 278.72938561 300.33908702 C278.72533916 294.31249922 278.7267931 288.28593644 278.73213387 282.25934982 C278.73288229 281.40060784 278.73363071 280.54186585 278.73440181 279.65710139 C278.73593334 277.91239123 278.73747169 276.16768108 278.73901678 274.42297094 C278.75273533 258.07230489 278.74730874 241.72168674 278.73583157 225.37102179 C278.72590062 210.42513511 278.73883861 195.47937226 278.76276576 180.53350468 C278.78717088 165.1728952 278.79676111 149.81234335 278.79011303 134.45171487 C278.78662385 125.83357351 278.78883291 117.21552734 278.80636406 108.59740067 C278.82110374 101.26075089 278.8216985 93.92426335 278.80429315 86.5876167 C278.79579511 82.84744766 278.79360396 79.10756822 278.8089447 75.36741447 C278.82539814 71.30555138 278.81061205 67.24438363 278.79295349 63.18252563 C278.8025585 62.01062105 278.8121635 60.83871646 278.82205957 59.63129961 C278.71318705 47.43217797 274.98279408 38.3721923 266.7722168 29.46508789 C254.91954787 18.10267535 239.65567074 19.20442563 224.29174805 19.11352539 C224.14479492 18.06165039 224.14479492 18.06165039 223.99487305 16.98852539 C223.77057617 15.56540039 223.77057617 15.56540039 223.54174805 14.11352539 C223.33291992 12.72133789 223.33291992 12.72133789 223.11987305 11.30102539 C222.06602514 7.24470513 220.27540676 3.78714012 218.29174805 0.11352539 C226.10214954 0.03718646 233.91245406 -0.01519577 241.72314453 -0.05126953 C244.37794581 -0.06461431 247.03225658 -0.08675472 249.68701172 -0.11279297 C253.51235057 -0.14936134 257.33735946 -0.16624389 261.1628418 -0.17944336 C262.34132187 -0.19492722 263.51980194 -0.21041107 264.73399353 -0.22636414 C274.25631904 -0.22828982 281.94327782 1.29103806 289.4987793 7.29321289 C292.59309581 10.43471941 294.44389498 14.14817546 296.29174805 18.11352539 C296.62174805 18.77352539 296.95174805 19.43352539 297.29174805 20.11352539 C297.39032229 22.11138979 297.42277002 24.11261618 297.42596912 26.11290836 C297.43042697 27.40019653 297.43488481 28.6874847 297.43947774 30.01378161 C297.43938844 31.4558888 297.43919856 32.89799598 297.43891907 34.34010315 C297.44221665 35.86159212 297.44594199 37.38308021 297.45006055 38.90456718 C297.46010101 43.10125659 297.46380063 47.29793169 297.46644986 51.49463141 C297.47034695 56.01492589 297.47992581 60.53520898 297.48866272 65.05549622 C297.50844579 75.98101395 297.51849647 86.90653265 297.52739051 97.83206382 C297.5317711 102.9747684 297.53713857 108.11747195 297.54237938 113.2601757 C297.55939483 130.35261732 297.57388888 147.44505828 297.58112812 164.53750706 C297.58303808 168.97536279 297.5849584 173.41321851 297.58691406 177.85107422 C297.5873978 178.95410989 297.58788154 180.05714556 297.58837994 181.19360655 C297.59667969 199.0609105 297.62201426 216.92814749 297.65449474 234.7954222 C297.6875574 253.13224156 297.70557624 271.46902688 297.70877236 289.8058762 C297.71093838 300.10415765 297.71970031 310.40234151 297.74523354 320.70059395 C297.76692984 329.47171585 297.77499628 338.24271645 297.76526675 347.01386214 C297.76071872 351.48889967 297.76263743 355.9636869 297.7820282 360.43869019 C297.7996371 364.53791104 297.79868074 368.63669857 297.78313091 372.73592388 C297.78075134 374.21650421 297.78509652 375.69711437 297.79695956 377.17764909 C297.87933087 388.13946601 296.53933014 396.34852442 289.0065918 404.60961914 C284.10248359 408.91048852 277.97136379 411.23298466 271.49958706 411.25053978 C270.01072621 411.25815159 270.01072621 411.25815159 268.49178737 411.26591718 C267.39842683 411.26641494 266.30506629 411.2669127 265.17857361 411.26742554 C264.01925357 411.27180779 262.85993353 411.27619004 261.66548258 411.28070509 C258.44211399 411.29177396 255.21877281 411.29831888 251.99538958 411.30288625 C248.52077098 411.30884274 245.04617026 411.32045259 241.57156372 411.33117676 C233.17670467 411.3557015 224.78183969 411.37032896 216.38695583 411.38323683 C214.01546199 411.38694901 211.64396874 411.39092223 209.27247548 411.39498949 C194.54342911 411.42022862 179.8143818 411.44228013 165.08531857 411.45471764 C161.67341547 411.4576473 158.2615124 411.46060897 154.84960938 411.46362305 C153.57760097 411.46474212 153.57760097 411.46474212 152.27989543 411.46588381 C138.54864295 411.47853217 124.81752011 411.51174798 111.0863282 411.55342488 C96.98588934 411.59587127 82.88551679 411.61941588 68.78501421 411.6246382 C60.86931794 411.62804949 52.95382417 411.63977104 45.03819084 411.67274094 C38.29534105 411.70077999 31.55273529 411.71172402 24.80983173 411.70054547 C21.37149954 411.69536836 17.93367803 411.69818259 14.49542046 411.72301102 C10.76112489 411.74568987 7.02811038 411.73741119 3.29380798 411.7215271 C2.21606249 411.73540919 1.138317 411.74929127 0.02791256 411.76359403 C-8.10554553 411.67852869 -14.75093349 409.72143439 -20.85863453 404.15300977 C-26.94214473 397.84868655 -29.08207867 391.03358062 -29.08679199 382.37614441 C-29.09132212 381.64046984 -29.09585225 380.90479526 -29.10051966 380.14682752 C-29.11206027 377.70479634 -29.10253113 375.26332178 -29.09301758 372.82128906 C-29.09712634 371.06144866 -29.10258901 369.30161097 -29.10929871 367.54177856 C-29.12099268 363.76424555 -29.12351932 359.98685851 -29.11894226 356.20931053 C-29.11212127 350.23869264 -29.12801791 344.26826636 -29.14733887 338.29768372 C-29.18836503 324.55362941 -29.19975273 310.80958067 -29.21086884 297.06547546 C-29.2213702 284.45270957 -29.23808516 271.84003596 -29.27896452 259.22732717 C-29.2973522 253.28876665 -29.30120245 247.3504259 -29.29402924 241.41184366 C-29.29251142 237.72530207 -29.30326478 234.03887136 -29.31740761 230.35235977 C-29.32142222 228.63946894 -29.32026498 226.92655725 -29.31363487 225.21367455 C-29.30529625 222.88083931 -29.31519316 220.5487764 -29.32971191 218.21598816 C-29.33042442 216.90913653 -29.33113693 215.60228491 -29.33187103 214.25583172 C-29.44003089 211.14887892 -29.44003089 211.14887892 -31.10691071 209.23212147 C-32.72258425 208.04570232 -32.72258425 208.04570232 -34.70825195 207.11352539 C-34.70825195 205.13352539 -34.70825195 203.15352539 -34.70825195 201.11352539 C-35.51262695 200.80415039 -36.31700195 200.49477539 -37.14575195 200.17602539 C-39.70825195 199.11352539 -39.70825195 199.11352539 -40.70825195 198.11352539 C-40.86176776 195.47423442 -40.93988256 192.8791258 -40.95825195 190.23852539 C-40.97887695 189.50504883 -40.99950195 188.77157227 -41.02075195 188.01586914 C-41.05988317 182.64510906 -41.05988317 182.64510906 -39.38012695 180.10571289 C-37.70825195 179.11352539 -37.70825195 179.11352539 -34.70825195 179.11352539 C-34.81137695 178.02040039 -34.91450195 176.92727539 -35.02075195 175.80102539 C-34.91762695 174.58415039 -34.81450195 173.36727539 -34.70825195 172.11352539 C-33.88929695 171.66519128 -33.07034195 171.21685717 -32.22657013 170.75493717 C-29.43872901 169.35242252 -29.43872901 169.35242252 -29.091362 166.44532681 C-29.09509071 165.36230313 -29.09881943 164.27927946 -29.10266113 163.16343689 C-29.09459946 161.92005554 -29.08653778 160.67667419 -29.07823181 159.39561462 C-29.09445927 158.01504017 -29.11112128 156.63447076 -29.12817383 155.25390625 C-29.12790723 153.80172521 -29.12537472 152.34954307 -29.1207428 150.89736938 C-29.11533241 147.76729962 -29.12541117 144.63779252 -29.14723206 141.50779533 C-29.18108027 136.55214771 -29.17701059 131.59697736 -29.16711426 126.64125061 C-29.15011056 115.21784227 -29.18283509 103.79467565 -29.21604156 92.37132263 C-29.24593552 81.92024216 -29.26519076 71.4694281 -29.24437571 61.01830965 C-29.23600921 56.09920188 -29.25169806 51.18095139 -29.28617096 46.26196563 C-29.30270525 43.18907077 -29.29842473 40.1164504 -29.2887249 37.04353714 C-29.28846654 35.62704626 -29.29667649 34.21052225 -29.31436348 32.79414177 C-29.42641359 23.35530306 -28.61192209 15.36821818 -21.93463898 8.21295071 C-15.46877458 2.24045946 -8.69733137 -0.0196328 0 0 Z " fill="#8AD4EE" transform="translate(121.708251953125,83.886474609375)"/>
<path d="M0 0 C8.09032789 6.47226231 13.91116178 13.72542078 15.8125 24.25 C16.69649982 37.24914494 15.47442665 47.8783885 6.80078125 58.2421875 C0.17744981 64.93058114 -7.03785223 68.19895364 -16.4375 68.625 C-25.81530371 68.39376648 -33.3958967 65.13919004 -40.17578125 58.67578125 C-48.92500324 48.12574851 -50.23229802 36.3975281 -49.1875 23.25 C-47.47764809 14.5050345 -42.9116416 6.84127241 -35.79296875 1.4296875 C-24.15706743 -5.97010228 -12.20041951 -6.69826953 0 0 Z M-32.1875 16.25 C-36.99468638 23.23009415 -37.12754707 31.04154774 -36.1875 39.25 C-34.50293443 45.53970931 -30.46113733 49.61859184 -25.1875 53.25 C-21.24043088 55.51878776 -17.66902122 55.90067459 -13.1875 55.25 C-6.01920937 52.92657615 -2.125899 48.59206724 1.625 42.125 C4.07186813 35.81907129 3.74563997 28.14600498 1.5625 21.8125 C-2.05566929 14.44694109 -6.49530272 11.03531026 -14.1875 8.25 C-21.1809783 7.68296122 -27.61272359 11.0160339 -32.1875 16.25 Z " fill="#1C70A0" transform="translate(359.1875,174.75)"/>
<path d="M0 0 C7.5078394 6.1606666 12.89579536 13.54166437 14.75 23.25 C15.63846725 35.36811064 14.46558221 45.72359304 7 55.6875 C1.0456723 62.56977487 -5.56645364 66.57014004 -14.74609375 67.50390625 C-24.03402799 67.91231187 -31.82108586 65.59465023 -39.0625 59.6875 C-47.8768406 51.09430773 -50.84603373 41.4080815 -51.25 29.25 C-50.73859967 19.50844741 -46.77533123 10.09131453 -40.1875 2.8515625 C-28.49018068 -6.81759258 -12.64707154 -9.04398615 0 0 Z M-33.25 15.25 C-37.32024641 21.17389365 -38.76246784 27.48799113 -37.99609375 34.609375 C-36.33967294 43.50331014 -31.58867852 48.51292504 -24.375 53.5625 C-19.3907171 55.17506211 -14.85801582 54.79916011 -10.125 52.75 C-4.6562399 49.71419223 -1.56991152 44.94981902 1.125 39.4375 C2.78588684 30.96697713 2.33482302 23.69094228 -2.25 16.25 C-6.21756247 11.29054692 -11.50949207 7.8886233 -17.8125 6.8125 C-24.04365208 7.93091191 -28.81431468 10.81431468 -33.25 15.25 Z " fill="#1C70A0" transform="translate(229.25,175.75)"/>
<path d="M0 0 C0.6776107 -0.00453111 1.35522141 -0.00906223 2.05336577 -0.01373065 C4.32882336 -0.02641281 6.60404278 -0.02475186 8.87953186 -0.02310181 C10.50893462 -0.02908464 12.13833454 -0.03588962 13.76773071 -0.04345703 C18.19744755 -0.0611481 22.62708715 -0.06581368 27.05683589 -0.0670886 C30.75230083 -0.06898603 34.44774771 -0.07634167 38.1432057 -0.08343279 C46.8600112 -0.09972576 55.57677538 -0.10460088 64.29359436 -0.10317993 C73.29195525 -0.10197789 82.29007652 -0.1230901 91.28837675 -0.15466726 C99.00904183 -0.18079756 106.72962849 -0.19154861 114.45033747 -0.19026911 C119.0637784 -0.18975857 123.6770064 -0.19549263 128.29040337 -0.21662521 C132.6283901 -0.23595336 136.96595957 -0.23616954 141.3039608 -0.22159195 C142.89710853 -0.21949606 144.49028202 -0.22425105 146.08338547 -0.23631287 C148.25652391 -0.25170219 150.42821217 -0.24250133 152.60131836 -0.22705078 C153.81787581 -0.22814032 155.03443327 -0.22922985 156.2878561 -0.2303524 C159.97305785 0.36595328 161.16094495 1.30105881 163.364151 4.26742554 C163.80584932 7.35931376 164.02281646 9.28049314 162.25671387 11.92678928 C159.41865923 13.93718429 157.09782474 13.64829806 153.64564514 13.65510559 C152.95916177 13.66049113 152.27267839 13.66587667 151.56539249 13.6714254 C149.2598496 13.68575916 146.95487649 13.67858828 144.64930725 13.67147827 C142.99857622 13.67717899 141.34784913 13.68414209 139.6971283 13.692276 C135.20958772 13.7102545 130.72224217 13.70903039 126.23467636 13.70333362 C122.49188985 13.70024887 118.74914119 13.70632615 115.00636005 13.71237236 C106.17930277 13.72643106 97.35234225 13.72484482 88.52528381 13.71347046 C79.40987652 13.70198432 70.29476327 13.71607013 61.17939472 13.74286693 C53.36022267 13.76499511 45.54114311 13.77166794 37.72194195 13.76579052 C33.04874317 13.76241324 28.37573296 13.76488707 23.70256042 13.78204155 C19.30956754 13.7974631 14.91701172 13.79360886 10.52403641 13.7747364 C8.90951244 13.77103734 7.29495643 13.77419717 5.68046188 13.78462219 C3.48068355 13.79774479 1.28237096 13.78636497 -0.91734314 13.76863098 C-2.14957108 13.7684217 -3.38179901 13.76821241 -4.65136719 13.76799679 C-7.635849 13.26742554 -7.635849 13.26742554 -9.56356812 11.4626627 C-11.19158089 8.12969817 -10.54628066 5.77909052 -9.635849 2.26742554 C-6.00563455 -0.15271743 -4.32333983 0.01191475 0 0 Z " fill="#1D71A0" transform="translate(195.63584899902344,430.7325744628906)"/>
<path d="M0 0 C0.6776107 -0.00453111 1.35522141 -0.00906223 2.05336577 -0.01373065 C4.32882336 -0.02641281 6.60404278 -0.02475186 8.87953186 -0.02310181 C10.50893462 -0.02908464 12.13833454 -0.03588962 13.76773071 -0.04345703 C18.19744755 -0.0611481 22.62708715 -0.06581368 27.05683589 -0.0670886 C30.75230083 -0.06898603 34.44774771 -0.07634167 38.1432057 -0.08343279 C46.8600112 -0.09972576 55.57677538 -0.10460088 64.29359436 -0.10317993 C73.29195525 -0.10197789 82.29007652 -0.1230901 91.28837675 -0.15466726 C99.00904183 -0.18079756 106.72962849 -0.19154861 114.45033747 -0.19026911 C119.0637784 -0.18975857 123.6770064 -0.19549263 128.29040337 -0.21662521 C132.6283901 -0.23595336 136.96595957 -0.23616954 141.3039608 -0.22159195 C142.89710853 -0.21949606 144.49028202 -0.22425105 146.08338547 -0.23631287 C148.25652391 -0.25170219 150.42821217 -0.24250133 152.60131836 -0.22705078 C153.81787581 -0.22814032 155.03443327 -0.22922985 156.2878561 -0.2303524 C159.97305785 0.36595328 161.16094495 1.30105881 163.364151 4.26742554 C163.80584932 7.35931376 164.02281646 9.28049314 162.25671387 11.92678928 C159.41865923 13.93718429 157.09782474 13.64829806 153.64564514 13.65510559 C152.95916177 13.66049113 152.27267839 13.66587667 151.56539249 13.6714254 C149.2598496 13.68575916 146.95487649 13.67858828 144.64930725 13.67147827 C142.99857622 13.67717899 141.34784913 13.68414209 139.6971283 13.692276 C135.20958772 13.7102545 130.72224217 13.70903039 126.23467636 13.70333362 C122.49188985 13.70024887 118.74914119 13.70632615 115.00636005 13.71237236 C106.17930277 13.72643106 97.35234225 13.72484482 88.52528381 13.71347046 C79.40987652 13.70198432 70.29476327 13.71607013 61.17939472 13.74286693 C53.36022267 13.76499511 45.54114311 13.77166794 37.72194195 13.76579052 C33.04874317 13.76241324 28.37573296 13.76488707 23.70256042 13.78204155 C19.30956754 13.7974631 14.91701172 13.79360886 10.52403641 13.7747364 C8.90951244 13.77103734 7.29495643 13.77419717 5.68046188 13.78462219 C3.48068355 13.79774479 1.28237096 13.78636497 -0.91734314 13.76863098 C-2.14957108 13.7684217 -3.38179901 13.76821241 -4.65136719 13.76799679 C-7.635849 13.26742554 -7.635849 13.26742554 -9.56356812 11.4626627 C-11.19158089 8.12969817 -10.54628066 5.77909052 -9.635849 2.26742554 C-6.00563455 -0.15271743 -4.32333983 0.01191475 0 0 Z " fill="#1D71A0" transform="translate(195.63584899902344,380.7325744628906)"/>
<path d="M0 0 C0.6776107 -0.00453111 1.35522141 -0.00906223 2.05336577 -0.01373065 C4.32882336 -0.02641281 6.60404278 -0.02475186 8.87953186 -0.02310181 C10.50893462 -0.02908464 12.13833454 -0.03588962 13.76773071 -0.04345703 C18.19744755 -0.0611481 22.62708715 -0.06581368 27.05683589 -0.0670886 C30.75230083 -0.06898603 34.44774771 -0.07634167 38.1432057 -0.08343279 C46.8600112 -0.09972576 55.57677538 -0.10460088 64.29359436 -0.10317993 C73.29195525 -0.10197789 82.29007652 -0.1230901 91.28837675 -0.15466726 C99.00904183 -0.18079756 106.72962849 -0.19154861 114.45033747 -0.19026911 C119.0637784 -0.18975857 123.6770064 -0.19549263 128.29040337 -0.21662521 C132.6283901 -0.23595336 136.96595957 -0.23616954 141.3039608 -0.22159195 C142.89710853 -0.21949606 144.49028202 -0.22425105 146.08338547 -0.23631287 C148.25652391 -0.25170219 150.42821217 -0.24250133 152.60131836 -0.22705078 C153.81787581 -0.22814032 155.03443327 -0.22922985 156.2878561 -0.2303524 C159.97305785 0.36595328 161.16094495 1.30105881 163.364151 4.26742554 C163.80584932 7.35931376 164.02281646 9.28049314 162.25671387 11.92678928 C159.41865923 13.93718429 157.09782474 13.64829806 153.64564514 13.65510559 C152.95916177 13.66049113 152.27267839 13.66587667 151.56539249 13.6714254 C149.2598496 13.68575916 146.95487649 13.67858828 144.64930725 13.67147827 C142.99857622 13.67717899 141.34784913 13.68414209 139.6971283 13.692276 C135.20958772 13.7102545 130.72224217 13.70903039 126.23467636 13.70333362 C122.49188985 13.70024887 118.74914119 13.70632615 115.00636005 13.71237236 C106.17930277 13.72643106 97.35234225 13.72484482 88.52528381 13.71347046 C79.40987652 13.70198432 70.29476327 13.71607013 61.17939472 13.74286693 C53.36022267 13.76499511 45.54114311 13.77166794 37.72194195 13.76579052 C33.04874317 13.76241324 28.37573296 13.76488707 23.70256042 13.78204155 C19.30956754 13.7974631 14.91701172 13.79360886 10.52403641 13.7747364 C8.90951244 13.77103734 7.29495643 13.77419717 5.68046188 13.78462219 C3.48068355 13.79774479 1.28237096 13.78636497 -0.91734314 13.76863098 C-2.14957108 13.7684217 -3.38179901 13.76821241 -4.65136719 13.76799679 C-7.635849 13.26742554 -7.635849 13.26742554 -9.56356812 11.4626627 C-11.19158089 8.12969817 -10.54628066 5.77909052 -9.635849 2.26742554 C-6.00563455 -0.15271743 -4.32333983 0.01191475 0 0 Z " fill="#1D71A0" transform="translate(195.63584899902344,330.7325744628906)"/>
<path d="M0 0 C0.6776107 -0.00453111 1.35522141 -0.00906223 2.05336577 -0.01373065 C4.32882336 -0.02641281 6.60404278 -0.02475186 8.87953186 -0.02310181 C10.50893462 -0.02908464 12.13833454 -0.03588962 13.76773071 -0.04345703 C18.19744755 -0.0611481 22.62708715 -0.06581368 27.05683589 -0.0670886 C30.75230083 -0.06898603 34.44774771 -0.07634167 38.1432057 -0.08343279 C46.8600112 -0.09972576 55.57677538 -0.10460088 64.29359436 -0.10317993 C73.29195525 -0.10197789 82.29007652 -0.1230901 91.28837675 -0.15466726 C99.00904183 -0.18079756 106.72962849 -0.19154861 114.45033747 -0.19026911 C119.0637784 -0.18975857 123.6770064 -0.19549263 128.29040337 -0.21662521 C132.6283901 -0.23595336 136.96595957 -0.23616954 141.3039608 -0.22159195 C142.89710853 -0.21949606 144.49028202 -0.22425105 146.08338547 -0.23631287 C148.25652391 -0.25170219 150.42821217 -0.24250133 152.60131836 -0.22705078 C153.81787581 -0.22814032 155.03443327 -0.22922985 156.2878561 -0.2303524 C159.97305785 0.36595328 161.16094495 1.30105881 163.364151 4.26742554 C163.80584932 7.35931376 164.02281646 9.28049314 162.25671387 11.92678928 C159.41865923 13.93718429 157.09782474 13.64829806 153.64564514 13.65510559 C152.95916177 13.66049113 152.27267839 13.66587667 151.56539249 13.6714254 C149.2598496 13.68575916 146.95487649 13.67858828 144.64930725 13.67147827 C142.99857622 13.67717899 141.34784913 13.68414209 139.6971283 13.692276 C135.20958772 13.7102545 130.72224217 13.70903039 126.23467636 13.70333362 C122.49188985 13.70024887 118.74914119 13.70632615 115.00636005 13.71237236 C106.17930277 13.72643106 97.35234225 13.72484482 88.52528381 13.71347046 C79.40987652 13.70198432 70.29476327 13.71607013 61.17939472 13.74286693 C53.36022267 13.76499511 45.54114311 13.77166794 37.72194195 13.76579052 C33.04874317 13.76241324 28.37573296 13.76488707 23.70256042 13.78204155 C19.30956754 13.7974631 14.91701172 13.79360886 10.52403641 13.7747364 C8.90951244 13.77103734 7.29495643 13.77419717 5.68046188 13.78462219 C3.48068355 13.79774479 1.28237096 13.78636497 -0.91734314 13.76863098 C-2.14957108 13.7684217 -3.38179901 13.76821241 -4.65136719 13.76799679 C-7.635849 13.26742554 -7.635849 13.26742554 -9.56356812 11.4626627 C-11.19158089 8.12969817 -10.54628066 5.77909052 -9.635849 2.26742554 C-6.00563455 -0.15271743 -4.32333983 0.01191475 0 0 Z " fill="#1D71A0" transform="translate(195.63584899902344,280.7325744628906)"/>
<path d="M0 0 C7.99143157 5.75009517 12.85910384 12.80289954 14.52734375 22.55859375 C14.8088156 25.68992584 14.8613804 28.7908259 14.83984375 31.93359375 C14.83355957 33.18595825 14.83355957 33.18595825 14.82714844 34.46362305 C14.6485617 44.21084929 12.71824437 52.07864066 5.84375 59.3359375 C-1.88669339 66.6930798 -9.30432981 68.89138008 -19.78515625 69.05859375 C-20.5622998 69.07720459 -21.33944336 69.09581543 -22.14013672 69.11499023 C-26.09382316 69.0709654 -28.04139486 68.83442017 -31.453125 66.65234375 C-34.64083846 63.34748028 -34.60444116 61.40055522 -34.63378906 56.90307617 C-34.64339661 55.71812057 -34.65300415 54.53316498 -34.66290283 53.31230164 C-34.66715271 52.02588272 -34.67140259 50.73946381 -34.67578125 49.4140625 C-34.68148132 48.09698807 -34.6871814 46.77991364 -34.6930542 45.42292786 C-34.7035645 42.63115045 -34.70940663 39.83940183 -34.71289062 37.04760742 C-34.7183686 33.47647483 -34.74238102 29.90572482 -34.77086258 26.33471203 C-34.79401157 22.92366955 -34.79594044 19.51267947 -34.80078125 16.1015625 C-34.81312805 14.82121628 -34.82547485 13.54087006 -34.8381958 12.22172546 C-34.8351947 11.02731339 -34.8321936 9.83290131 -34.82910156 8.60229492 C-34.83274719 7.55353683 -34.83639282 6.50477875 -34.84014893 5.42424011 C-34.414752 2.10706611 -33.44479153 0.23763165 -31.47265625 -2.44140625 C-22.51273299 -7.46807506 -8.53365998 -4.974598 0 0 Z M-21.47265625 8.55859375 C-21.47265625 24.06859375 -21.47265625 39.57859375 -21.47265625 55.55859375 C-11.97448198 55.87174396 -11.97448198 55.87174396 -4.84375 50.9765625 C1.64743176 43.79715906 2.0596873 37.04219902 1.83984375 27.6796875 C1.49174931 21.21528371 -0.61595914 17.04173582 -5.34765625 12.68359375 C-11.07679564 8.78777897 -14.38704685 8.55859375 -21.47265625 8.55859375 Z " fill="#1C70A0" transform="translate(291.47265625,174.44140625)"/>
<path d="M0 0 C1.24245483 -0.00218285 1.24245483 -0.00218285 2.51000977 -0.00440979 C4.25833662 -0.00275246 6.00667832 0.00879034 7.75488281 0.02954102 C10.42836586 0.05849483 13.0998651 0.05014759 15.7734375 0.03710938 C17.47396795 0.04334719 19.17449216 0.05173847 20.875 0.0625 C22.07201538 0.05809654 22.07201538 0.05809654 23.29321289 0.05360413 C26.61291779 0.10992981 29.0158113 0.25969812 31.94165039 1.89990234 C33.80460778 3.88782717 33.95054795 4.86405037 33.875 7.55859375 C33.730625 8.85796875 33.58625 10.15734375 33.4375 11.49609375 C29.80554504 13.91739706 28.05400652 13.7063216 23.75 13.62109375 C22.57050781 13.60304687 21.39101562 13.585 20.17578125 13.56640625 C19.27214844 13.54320312 18.36851562 13.52 17.4375 13.49609375 C17.44194122 14.17625549 17.44638245 14.85641724 17.45095825 15.55718994 C17.49516999 22.62973939 17.52535752 29.70224965 17.54736328 36.77490234 C17.55742719 39.41521804 17.57107952 42.05552258 17.58837891 44.69580078 C17.61260971 48.48863478 17.62397923 52.28132154 17.6328125 56.07421875 C17.64313507 57.25663147 17.65345764 58.43904419 17.66409302 59.6572876 C17.66424408 60.75812683 17.66439514 61.85896606 17.66455078 62.99316406 C17.668992 63.96135071 17.67343323 64.92953735 17.67800903 65.92706299 C17.42577848 68.62129883 16.89996501 70.23346964 15.4375 72.49609375 C12.63879973 73.89544388 10.53251208 73.7487478 7.4375 73.49609375 C5.76737976 72.32878113 5.76737976 72.32878113 4.4375 70.49609375 C4.07673645 67.97138977 4.07673645 67.97138977 4.09692383 64.9230957 C4.09715042 63.78213943 4.09737701 62.64118317 4.09761047 61.46565247 C4.11309433 60.2343309 4.12857819 59.00300934 4.14453125 57.734375 C4.14877609 56.47344528 4.15302094 55.21251556 4.15739441 53.91337585 C4.17135373 50.56434432 4.19829896 47.21592617 4.23150635 43.86706543 C4.26221895 40.44854022 4.27590224 37.0299516 4.29101562 33.61132812 C4.32412777 26.90608026 4.37435982 20.20112242 4.4375 13.49609375 C3.46167969 13.53089844 2.48585937 13.56570312 1.48046875 13.6015625 C-0.42798828 13.64216797 -0.42798828 13.64216797 -2.375 13.68359375 C-4.27185547 13.73580078 -4.27185547 13.73580078 -6.20703125 13.7890625 C-9.5625 13.49609375 -9.5625 13.49609375 -11.484375 12.16796875 C-13.20214491 9.50418063 -13.00319924 7.58098844 -12.5625 4.49609375 C-9.2634375 -0.28031398 -5.36180937 -0.0754808 0 0 Z " fill="#1C71A0" transform="translate(149.5625,169.50390625)"/>
<path d="M0 0 C2.36398846 3.54598268 2.29818374 5.23329099 2.3125 9.4375 C2.32925781 10.57058594 2.34601563 11.70367187 2.36328125 12.87109375 C1.9698533 16.25965061 1.37436799 17.60291079 -1 20 C-3.4375 20.9375 -3.4375 20.9375 -6 21 C-8.1328125 20.00390625 -8.1328125 20.00390625 -10 18 C-10.37980738 15.17686485 -10.51500992 12.81035976 -10.4375 10 C-10.44458984 9.27554687 -10.45167969 8.55109375 -10.45898438 7.8046875 C-10.42291277 4.79687025 -10.35903862 2.55253249 -8.6953125 -0.0078125 C-5.72140489 -1.74830221 -3.19425826 -0.81308392 0 0 Z " fill="#1E72A0" transform="translate(91,264)"/>
<path d="M0 0 C4.52451299 1.44399351 4.52451299 1.44399351 5.9375 3.9375 C5.60416667 10.27083333 5.60416667 10.27083333 2.9375 12.9375 C-3.11490175 13.48771834 -3.11490175 13.48771834 -6 11.8125 C-7.59240283 9.00237736 -7.51569325 7.10985276 -7.0625 3.9375 C-4.87947885 0.66296827 -3.97767861 -0.08117711 0 0 Z " fill="#1C70A0" transform="translate(160.0625,431.0625)"/>
<path d="M0 0 C4.52451299 1.44399351 4.52451299 1.44399351 5.9375 3.9375 C5.60416667 10.27083333 5.60416667 10.27083333 2.9375 12.9375 C-3.11490175 13.48771834 -3.11490175 13.48771834 -6 11.8125 C-7.59240283 9.00237736 -7.51569325 7.10985276 -7.0625 3.9375 C-4.87947885 0.66296827 -3.97767861 -0.08117711 0 0 Z " fill="#1B70A0" transform="translate(160.0625,331.0625)"/>
<path d="M0 0 C1.875 1.125 1.875 1.125 3 3 C2.66666667 9.33333333 2.66666667 9.33333333 0 12 C-6.05240175 12.55021834 -6.05240175 12.55021834 -8.9375 10.875 C-10.48724515 8.14015561 -10.32162076 6.0875593 -10 3 C-7.09160878 -1.36258683 -4.77799698 -1.43339909 0 0 Z " fill="#1C6FA1" transform="translate(163,382)"/>
<path d="M0 0 C2.9375 1 2.9375 1 4.875 2.6875 C6.33365475 5.86221916 5.94221852 7.69878201 4.9375 11 C1.46826119 13.31282587 0.01544425 13.42478586 -4.0625 13 C-5.9375 11.875 -5.9375 11.875 -7.0625 10 C-7.60650387 6.34740261 -7.50024093 4.6566114 -5.4375 1.5625 C-3.0625 0 -3.0625 0 0 0 Z " fill="#1D71A0" transform="translate(160.0625,281)"/>
</svg>
